HIERARCHY
ROOT Hips
{
	OFFSET 0.000000 71.427986 0.000000
	CHANNELS 6 Xposition Yposition Zposition Xrotation Yrotation Zrotation
	JOINT Pelvis
	{
		OFFSET 0.000000 0.000000 0.000000
		CHANNELS 3 Xrotation Yrotation Zrotation
		JOINT LeftUpLeg
		{
			OFFSET 6.797100 -2.508499 -1.318700
			CHANNELS 3 Xrotation Yrotation Zrotation
			JOINT LeftLeg
			{
				OFFSET 0.069008 -29.241863 0.690200
				CHANNELS 3 Xrotation Yrotation Zrotation
				JOINT LeftFoot
				{
					OFFSET -0.069008 -29.568123 -0.266800
					CHANNELS 3 Xrotation Yrotation Zrotation
					JOINT LeftToeBase
					{
						OFFSET 3.145500 -8.631000 16.059900
						CHANNELS 3 Xrotation Yrotation Zrotation
						End Site
						{
							OFFSET 0.000000 18.501587 0.000000
						}
					}
				}
			}
			JOINT Left_ShortSleeve
			{
				OFFSET 0.265923 -10.480953 1.153800
				CHANNELS 3 Xrotation Yrotation Zrotation
				End Site
				{
					OFFSET 1.725763 19.823879 0.000000
				}
			}
		}
		JOINT RightUpLeg
		{
			OFFSET -6.797100 -2.508499 -1.318700
			CHANNELS 3 Xrotation Yrotation Zrotation
			JOINT RightLeg
			{
				OFFSET -0.082453 -29.241932 0.688000
				CHANNELS 3 Xrotation Yrotation Zrotation
				JOINT RightFoot
				{
					OFFSET 0.082453 -29.568058 -0.264600
					CHANNELS 3 Xrotation Yrotation Zrotation
					JOINT RightToeBase
					{
						OFFSET -3.115300 -8.682800 16.113400
						CHANNELS 3 Xrotation Yrotation Zrotation
						End Site
						{
							OFFSET 0.000000 18.567114 0.000000
						}
					}
				}
			}
			JOINT Right_ShortSleeve
			{
				OFFSET -0.265923 -10.480953 1.153800
				CHANNELS 3 Xrotation Yrotation Zrotation
				End Site
				{
					OFFSET -1.725766 19.823910 0.000000
				}
			}
		}
	}
	JOINT Spine
	{
		OFFSET 0.000000 13.368103 0.470500
		CHANNELS 3 Xrotation Yrotation Zrotation
		JOINT Spine1
		{
			OFFSET 0.147000 13.837402 0.538800
			CHANNELS 3 Xrotation Yrotation Zrotation
			JOINT Spine2
			{
				OFFSET 0.168000 16.242897 -1.435500
				CHANNELS 3 Xrotation Yrotation Zrotation
				JOINT Neck
				{
					OFFSET 0.217200 18.631500 -1.679100
					CHANNELS 3 Xrotation Yrotation Zrotation
					JOINT Head
					{
						OFFSET 0.000000 6.599396 1.385900
						CHANNELS 3 Xrotation Yrotation Zrotation
						JOINT Hat
						{
							OFFSET -0.532200 27.220596 -10.096100
							CHANNELS 3 Xrotation Yrotation Zrotation
							End Site
							{
								OFFSET 0.000000 22.029861 0.000000
							}
						}
						JOINT HairD
						{
							OFFSET -10.777400 17.437393 -1.325900
							CHANNELS 3 Xrotation Yrotation Zrotation
							JOINT HairD1
							{
								OFFSET -3.290299 -11.051193 1.062200
								CHANNELS 3 Xrotation Yrotation Zrotation
								End Site
								{
									OFFSET 0.000000 11.579437 0.000000
								}
							}
						}
						JOINT HairB
						{
							OFFSET -10.777400 17.437393 1.467900
							CHANNELS 3 Xrotation Yrotation Zrotation
							JOINT HairB1
							{
								OFFSET -1.561200 -12.956299 3.590200
								CHANNELS 3 Xrotation Yrotation Zrotation
								End Site
								{
									OFFSET 0.000000 13.534866 0.000000
								}
							}
						}
						JOINT HairA
						{
							OFFSET 9.713100 17.437393 1.467900
							CHANNELS 3 Xrotation Yrotation Zrotation
							JOINT HairA1
							{
								OFFSET 1.561200 -12.956299 3.590200
								CHANNELS 3 Xrotation Yrotation Zrotation
								End Site
								{
									OFFSET 0.000000 13.534866 0.000000
								}
							}
						}
						JOINT HairC
						{
							OFFSET 9.713100 17.437393 -1.325900
							CHANNELS 3 Xrotation Yrotation Zrotation
							JOINT HairC1
							{
								OFFSET 3.290300 -11.051193 1.062200
								CHANNELS 3 Xrotation Yrotation Zrotation
								End Site
								{
									OFFSET 0.000000 11.579437 0.000000
								}
							}
						}
					}
				}
				JOINT LeftShoulder
				{
					OFFSET 5.101800 15.108002 -2.763700
					CHANNELS 3 Xrotation Yrotation Zrotation
					JOINT LeftArm
					{
						OFFSET 9.825497 2.506317 -1.597400
						CHANNELS 3 Xrotation Yrotation Zrotation
						JOINT LeftForeArm
						{
							OFFSET 21.966244 0.000000 0.000000
							CHANNELS 3 Xrotation Yrotation Zrotation
							JOINT LeftHand
							{
								OFFSET 33.879036 0.000000 0.000000
								CHANNELS 3 Xrotation Yrotation Zrotation
								JOINT LeftHandThumb1
								{
									OFFSET 6.715286 -2.359680 3.363841
									CHANNELS 3 Xrotation Yrotation Zrotation
									JOINT LeftHandThumb2
									{
										OFFSET 2.507072 -1.447464 1.447461
										CHANNELS 3 Xrotation Yrotation Zrotation
										JOINT LeftHandThumb3
										{
											OFFSET 2.898338 -1.673355 1.673357
											CHANNELS 3 Xrotation Yrotation Zrotation
											End Site
											{
												OFFSET -0.295959 3.727692 -0.131651
											}
										}
									}
								}
								JOINT LeftHandIndex1
								{
									OFFSET 14.190811 -0.254547 3.840278
									CHANNELS 3 Xrotation Yrotation Zrotation
									JOINT LeftHandIndex2
									{
										OFFSET 3.551727 0.000000 -0.000000
										CHANNELS 3 Xrotation Yrotation Zrotation
										JOINT LeftHandIndex3
										{
											OFFSET 2.894196 0.000000 0.000000
											CHANNELS 3 Xrotation Yrotation Zrotation
											End Site
											{
												OFFSET -1.000603 2.690872 0.366626
											}
										}
									}
								}
								JOINT LeftHandMiddle1
								{
									OFFSET 13.776489 0.000000 0.000000
									CHANNELS 3 Xrotation Yrotation Zrotation
									JOINT LeftHandMiddle2
									{
										OFFSET 3.438232 0.000000 0.000000
										CHANNELS 3 Xrotation Yrotation Zrotation
										JOINT LeftHandMiddle3
										{
											OFFSET 3.691551 0.000000 0.000000
											CHANNELS 3 Xrotation Yrotation Zrotation
											End Site
											{
												OFFSET -1.082298 3.499527 0.457670
											}
										}
									}
								}
								JOINT LeftHandRing1
								{
									OFFSET 13.966164 -0.268127 -3.067488
									CHANNELS 3 Xrotation Yrotation Zrotation
									JOINT LeftHandRing2
									{
										OFFSET 3.162567 0.000000 0.000000
										CHANNELS 3 Xrotation Yrotation Zrotation
										JOINT LeftHandRing3
										{
											OFFSET 3.324348 0.000000 0.000000
											CHANNELS 3 Xrotation Yrotation Zrotation
											End Site
											{
												OFFSET -0.861900 3.184998 0.405154
											}
										}
									}
								}
								JOINT LeftHandPinky1
								{
									OFFSET 13.131393 -0.168503 -5.746925
									CHANNELS 3 Xrotation Yrotation Zrotation
									JOINT LeftHandPinky2
									{
										OFFSET 2.849182 0.000000 0.000000
										CHANNELS 3 Xrotation Yrotation Zrotation
										JOINT LeftHandPinky3
										{
											OFFSET 2.805038 0.000000 0.000000
											CHANNELS 3 Xrotation Yrotation Zrotation
											End Site
											{
												OFFSET -0.882500 2.642609 0.325652
											}
										}
									}
								}
							}
							JOINT Left_Sleeve
							{
								OFFSET 6.592125 -0.646545 0.805568
								CHANNELS 3 Xrotation Yrotation Zrotation
								End Site
								{
									OFFSET -0.000179 20.275787 -0.000000
								}
							}
						}
					}
				}
				JOINT RightShoulder
				{
					OFFSET -5.731700 15.108002 -2.763700
					CHANNELS 3 Xrotation Yrotation Zrotation
					JOINT RightArm
					{
						OFFSET -9.825497 2.506317 -1.597400
						CHANNELS 3 Xrotation Yrotation Zrotation
						JOINT RightForeArm
						{
							OFFSET -21.966242 0.000000 0.000000
							CHANNELS 3 Xrotation Yrotation Zrotation
							JOINT RightHand
							{
								OFFSET -33.879032 0.000000 0.000000
								CHANNELS 3 Xrotation Yrotation Zrotation
								JOINT RightHandThumb1
								{
									OFFSET -6.715286 -2.359680 3.363841
									CHANNELS 3 Xrotation Yrotation Zrotation
									JOINT RightHandThumb2
									{
										OFFSET -2.507072 -1.447464 1.447461
										CHANNELS 3 Xrotation Yrotation Zrotation
										JOINT RightHandThumb3
										{
											OFFSET -2.898338 -1.673355 1.673357
											CHANNELS 3 Xrotation Yrotation Zrotation
											End Site
											{
												OFFSET 0.295959 3.727692 -0.131651
											}
										}
									}
								}
								JOINT RightHandIndex1
								{
									OFFSET -14.190811 -0.254547 3.840278
									CHANNELS 3 Xrotation Yrotation Zrotation
									JOINT RightHandIndex2
									{
										OFFSET -3.551727 0.000000 -0.000000
										CHANNELS 3 Xrotation Yrotation Zrotation
										JOINT RightHandIndex3
										{
											OFFSET -2.894196 0.000000 0.000000
											CHANNELS 3 Xrotation Yrotation Zrotation
											End Site
											{
												OFFSET 1.000603 2.690872 0.366626
											}
										}
									}
								}
								JOINT RightHandMiddle1
								{
									OFFSET -13.776489 0.000000 0.000000
									CHANNELS 3 Xrotation Yrotation Zrotation
									JOINT RightHandMiddle2
									{
										OFFSET -3.438232 0.000000 0.000000
										CHANNELS 3 Xrotation Yrotation Zrotation
										JOINT RightHandMiddle3
										{
											OFFSET -3.691551 0.000000 0.000000
											CHANNELS 3 Xrotation Yrotation Zrotation
											End Site
											{
												OFFSET 1.082298 3.499527 0.457670
											}
										}
									}
								}
								JOINT RightHandRing1
								{
									OFFSET -13.966164 -0.268127 -3.067488
									CHANNELS 3 Xrotation Yrotation Zrotation
									JOINT RightHandRing2
									{
										OFFSET -3.162567 0.000000 0.000000
										CHANNELS 3 Xrotation Yrotation Zrotation
										JOINT RightHandRing3
										{
											OFFSET -3.324348 0.000000 0.000000
											CHANNELS 3 Xrotation Yrotation Zrotation
											End Site
											{
												OFFSET 0.861900 3.184998 0.405154
											}
										}
									}
								}
								JOINT RightHandPinky1
								{
									OFFSET -13.131393 -0.168503 -5.746925
									CHANNELS 3 Xrotation Yrotation Zrotation
									JOINT RightHandPinky2
									{
										OFFSET -2.849182 0.000000 0.000000
										CHANNELS 3 Xrotation Yrotation Zrotation
										JOINT RightHandPinky3
										{
											OFFSET -2.805038 0.000000 0.000000
											CHANNELS 3 Xrotation Yrotation Zrotation
											End Site
											{
												OFFSET 0.882500 2.642609 0.325652
											}
										}
									}
								}
							}
							JOINT Right_Sleeve
							{
								OFFSET -6.592125 -0.646545 0.805568
								CHANNELS 3 Xrotation Yrotation Zrotation
								End Site
								{
									OFFSET 0.000179 20.275787 -0.000000
								}
							}
						}
					}
				}
				JOINT Bind_Right_JacketString
				{
					OFFSET -3.534800 11.969597 7.200700
					CHANNELS 3 Xrotation Yrotation Zrotation
					JOINT Bind_Right_JacketString1
					{
						OFFSET -0.319900 -6.102600 2.794100
						CHANNELS 3 Xrotation Yrotation Zrotation
						End Site
						{
							OFFSET 0.000000 6.719452 0.000000
						}
					}
				}
				JOINT Bind_Left_JacketString
				{
					OFFSET 2.904800 11.969597 7.200700
					CHANNELS 3 Xrotation Yrotation Zrotation
					JOINT Bind_Left_JacketString1
					{
						OFFSET 0.364800 -5.904503 3.186800
						CHANNELS 3 Xrotation Yrotation Zrotation
						End Site
						{
							OFFSET 0.000000 6.719513 0.000000
						}
					}
				}
				JOINT HairE
				{
					OFFSET 5.915200 17.612701 -11.592200
					CHANNELS 3 Xrotation Yrotation Zrotation
					JOINT HairE1
					{
						OFFSET 0.289200 -7.171898 -1.284500
						CHANNELS 3 Xrotation Yrotation Zrotation
						End Site
						{
							OFFSET 0.000000 7.291756 0.000000
						}
					}
				}
				JOINT HairF
				{
					OFFSET -0.864800 17.612701 -11.592200
					CHANNELS 3 Xrotation Yrotation Zrotation
					JOINT HairF1
					{
						OFFSET 0.000000 -14.087097 -2.127501
						CHANNELS 3 Xrotation Yrotation Zrotation
						End Site
						{
							OFFSET 0.000000 14.246841 0.000000
						}
					}
				}
				JOINT HairG
				{
					OFFSET -8.087700 17.612701 -11.592200
					CHANNELS 3 Xrotation Yrotation Zrotation
					JOINT HairG1
					{
						OFFSET -0.293600 -6.081398 -0.910100
						CHANNELS 3 Xrotation Yrotation Zrotation
						End Site
						{
							OFFSET 0.000000 6.156120 0.000000
						}
					}
				}
			}
		}
	}
	JOINT Pouch
	{
		OFFSET 0.000000 4.394501 10.847300
		CHANNELS 3 Xrotation Yrotation Zrotation
		End Site
		{
			OFFSET 0.000000 21.880577 0.000000
		}
	}
	JOINT Bag
	{
		OFFSET -13.229000 4.813004 -0.593300
		CHANNELS 3 Xrotation Yrotation Zrotation
		End Site
		{
			OFFSET 0.000000 21.880577 0.000000
		}
	}
	JOINT OccupyGuyFacialAnim_Joint
	{
		OFFSET 1.000000 -70.206398 -1.655000
		CHANNELS 3 Xrotation Yrotation Zrotation
		End Site
		{
			OFFSET 0.000000 21.880577 0.000000
		}
	}
}
MOTION
Frames: 5
Frame Time: 0.033333
-0.051014 41.378387 -1.329498 -19.331956 -12.264644 2.395128 0.000001 0.000001 0.000000 -70.118428 5.881189 11.335349 88.936160 5.786673 -3.696470 0.345850 -0.152888 3.144833 -0.000000 0.000000 -0.000000 -0.000000 -0.000000 0.000000 -72.149173 -5.202445 -5.847119 83.371160 7.415650 3.721209 8.086865 -0.256701 -14.295224 -0.000000 0.000001 0.000000 0.000000 0.000002 0.000000 6.063779 -9.124184 -0.463666 12.257483 -18.322104 -0.074423 12.257486 -18.322095 -0.074424 10.489644 32.334047 -17.491732 -15.879621 18.482792 3.802235 0.000001 0.000000 0.000000 0.000001 0.000000 0.000000 0.000001 0.000000 0.000000 0.000001 0.000000 -0.000000 0.000000 0.000000 -0.000001 0.000001 0.000000 -0.000000 0.000000 0.000000 -0.000001 0.000001 0.000000 0.000000 0.000001 0.000000 0.000000 8.521347 -25.681230 -3.129349 -24.109509 -16.964933 -58.613063 -57.063857 -49.938436 -65.759661 -47.501814 -18.543702 15.125003 5.886980 -23.795969 -5.451635 20.070506 29.476918 -3.342932 0.000001 -0.000000 0.000000 -6.794493 -6.015148 -68.958102 -4.074232 -4.480755 -78.854684 0.000001 0.000001 -0.000002 -7.774772 1.224385 -72.837288 -1.956346 -1.927892 -84.148265 -0.000001 -0.000001 0.000002 -7.213915 3.602703 -75.164825 -2.211788 1.113575 -74.379114 0.000001 -0.000002 0.000001 -9.683383 10.622094 -76.140592 1.289459 3.384826 -54.160951 0.000000 -0.000000 0.000001 -0.000002 0.000000 0.000000 -1.946046 4.880708 5.535934 5.502501 -9.452292 31.029648 15.920753 80.943520 10.716884 2.550872 4.589092 -7.446662 29.807762 11.414108 4.978947 0.685745 -9.241596 -4.247788 -0.000001 -0.000004 -0.000003 2.346872 -1.612396 48.394359 -6.703993 1.842618 87.329856 0.000001 0.000001 -0.000001 -0.734711 -1.568606 58.577287 -6.381739 3.432071 85.213515 0.000002 -0.000001 0.000001 -3.343785 -6.176197 66.274425 -3.333615 6.032147 81.331140 0.000000 -0.000002 -0.000003 -6.079391 -11.652024 66.488886 -3.158989 8.405379 83.476414 0.000000 -0.000001 -0.000001 -0.000001 0.000000 -0.000001 -0.000000 0.000000 -0.000000 0.000002 -0.000001 -0.000000 -0.000000 0.000000 -0.000001 -0.000000 0.000000 -0.000001 -0.000000 0.000000 -0.000000 0.000002 -0.000001 -0.000000 -0.000000 0.000000 -0.000001 -0.000000 0.000000 -0.000001 -0.000000 0.000000 -0.000000 0.000002 -0.000001 -0.000000 0.000001 0.000001 0.000000 0.000001 0.000001 0.000000 0.000001 0.000001 0.000000 
-0.051732 41.379532 -1.334705 -19.375876 -12.116763 2.357135 0.000001 0.000001 0.000000 -70.107077 5.893672 11.331501 88.914412 5.594497 -3.701199 0.377970 -0.151777 3.283616 -0.000000 0.000000 -0.000000 -0.000000 -0.000000 -0.000000 -72.126176 -5.198000 -5.840309 83.416779 7.094725 3.701633 7.887434 -0.234485 -14.246254 0.000000 -0.000001 -0.000000 0.000000 0.000001 0.000001 6.080727 -9.323889 -0.480535 12.298939 -18.718362 -0.077291 12.298941 -18.718362 -0.077292 10.440793 32.240221 -17.504098 -15.881896 18.358182 3.857714 0.000001 -0.000000 -0.000001 0.000001 -0.000000 -0.000001 0.000001 -0.000000 -0.000001 0.000001 -0.000000 -0.000001 0.000001 0.000000 -0.000000 0.000001 -0.000000 -0.000001 0.000001 0.000000 -0.000000 0.000001 -0.000000 -0.000001 0.000001 -0.000000 -0.000001 7.709587 -26.773957 -4.387205 -23.718527 -16.605863 -57.345783 -55.688612 -49.000727 -63.992036 -48.816649 -17.282535 13.780877 5.520647 -23.284675 -5.969405 19.686429 28.679811 -3.233543 -0.000001 0.000002 0.000003 -6.880837 -6.144606 -68.162310 -4.023118 -4.410215 -78.210966 0.000001 0.000000 0.000003 -7.672593 1.104248 -72.431943 -2.084339 -2.025409 -84.434409 0.000001 0.000001 -0.000003 -7.066247 3.657850 -75.093313 -2.127668 0.976230 -75.597340 -0.000003 0.000001 0.000001 -9.518774 10.684912 -76.364609 1.521632 3.115563 -55.459213 0.000001 -0.000001 0.000003 -0.000003 0.000001 0.000001 -1.943720 5.087647 5.500558 6.046559 -10.306186 30.887734 12.924930 82.936262 13.910611 2.590420 1.827131 -7.690316 29.807769 11.414133 4.978933 0.685752 -9.241619 -4.247777 -0.000000 -0.000001 0.000002 2.346868 -1.612376 48.394363 -6.703980 1.842615 87.329883 0.000002 -0.000000 -0.000002 -0.734709 -1.568592 58.577280 -6.381731 3.432066 85.213502 0.000002 -0.000001 -0.000001 -3.343777 -6.176181 66.274425 -3.333631 6.032149 81.331113 0.000005 -0.000001 -0.000000 -6.079370 -11.652001 66.488873 -3.159003 8.405390 83.476407 -0.000006 0.000003 0.000001 -0.000001 -0.000002 0.000001 -0.000001 -0.000002 -0.000000 0.000000 0.000003 -0.000001 -0.000001 -0.000002 -0.000000 -0.000001 -0.000002 -0.000000 -0.000001 -0.000002 -0.000000 0.000000 0.000003 -0.000000 -0.000001 -0.000002 -0.000000 -0.000001 -0.000002 -0.000000 -0.000001 -0.000002 -0.000000 0.000000 0.000003 -0.000000 0.000001 0.000001 0.000000 0.000001 0.000001 0.000000 0.000001 0.000001 0.000000 
-0.052877 41.380585 -1.339294 -19.412583 -11.977154 2.325260 0.000002 0.000000 0.000000 -70.102630 5.909942 11.327736 88.899468 5.413157 -3.709601 0.404466 -0.150744 3.429527 0.000000 0.000000 -0.000000 -0.000000 0.000000 -0.000000 -72.111279 -5.196577 -5.836757 83.464058 6.777414 3.682431 7.688281 -0.211710 -14.206805 0.000000 -0.000000 0.000000 -0.000000 -0.000001 -0.000000 6.101065 -9.467314 -0.500683 12.344636 -19.002411 -0.092295 12.344633 -19.002413 -0.092296 10.330139 32.017902 -17.531320 -15.888984 18.069974 3.988489 0.000000 0.000000 0.000000 0.000000 0.000000 0.000000 0.000000 0.000000 0.000000 0.000000 0.000000 -0.000000 0.000000 0.000000 0.000000 0.000000 0.000000 -0.000000 0.000000 0.000000 0.000000 0.000000 0.000000 0.000000 0.000000 0.000000 0.000000 6.771521 -27.910303 -5.850926 -23.109986 -16.207445 -56.087683 -54.098865 -47.925136 -62.061059 -50.134579 -15.966021 12.496215 5.087412 -22.789153 -6.471902 19.355431 28.037211 -3.258318 0.000004 0.000001 0.000003 -7.045132 -6.272400 -67.933164 -4.020786 -4.387936 -78.115760 0.000002 -0.000001 -0.000000 -7.609577 1.059833 -72.596653 -2.228787 -2.185782 -85.536768 -0.000000 -0.000001 0.000002 -7.008770 3.740786 -75.628369 -1.991928 0.862679 -77.683334 -0.000001 0.000003 -0.000005 -9.452068 10.802867 -77.230978 1.893649 2.881456 -57.383698 -0.000001 -0.000000 0.000001 -0.000000 0.000001 0.000000 -1.936896 5.209787 5.497605 6.846100 -11.228362 30.803678 6.639818 85.015255 20.545583 2.464937 -1.108774 -7.770106 29.807772 11.414121 4.978941 0.685733 -9.241627 -4.247795 -0.000001 -0.000001 0.000003 2.346863 -1.612394 48.394373 -6.703985 1.842606 87.329883 -0.000001 -0.000000 -0.000002 -0.734703 -1.568599 58.577287 -6.381732 3.432074 85.213508 -0.000001 -0.000001 0.000001 -3.343759 -6.176191 66.274425 -3.333630 6.032157 81.331133 0.000001 -0.000001 0.000001 -6.079381 -11.652018 66.488893 -3.158994 8.405382 83.476393 0.000000 0.000001 -0.000001 -0.000000 -0.000001 -0.000002 -0.000000 0.000000 -0.000000 0.000002 0.000000 -0.000001 -0.000000 0.000000 -0.000000 -0.000000 0.000000 -0.000000 -0.000000 0.000000 -0.000000 0.000002 0.000000 -0.000000 -0.000000 0.000000 -0.000000 -0.000000 0.000000 -0.000000 -0.000000 0.000000 -0.000000 0.000002 0.000000 -0.000000 0.000002 0.000000 0.000000 0.000002 0.000000 0.000000 0.000002 0.000000 0.000000 
-0.054308 41.381645 -1.343548 -19.445168 -11.842214 2.297023 0.000002 0.000000 -0.000000 -70.099707 5.927070 11.327542 88.886928 5.235532 -3.719638 0.427810 -0.155785 3.569256 -0.000000 -0.000000 -0.000000 0.000000 0.000000 0.000000 -72.100563 -5.197055 -5.836123 83.511275 6.461081 3.663421 7.491163 -0.188792 -14.172833 0.000000 -0.000000 -0.000000 0.000000 0.000000 0.000000 6.120057 -9.554698 -0.523614 12.384809 -19.174660 -0.119256 12.384806 -19.174643 -0.119256 10.162706 31.667684 -17.569775 -15.902050 17.629975 4.192295 0.000000 0.000000 -0.000000 0.000000 0.000000 -0.000000 0.000000 0.000000 -0.000000 0.000000 0.000000 -0.000000 0.000000 0.000000 -0.000000 0.000000 0.000000 -0.000000 0.000000 0.000000 -0.000000 0.000000 0.000000 -0.000000 0.000000 0.000000 -0.000000 5.723980 -29.056741 -7.452273 -22.369066 -15.771820 -54.846084 -52.442223 -46.755012 -60.080789 -51.429077 -14.615688 11.248651 4.600344 -22.305902 -6.960599 19.067018 27.521441 -3.391951 0.000002 0.000001 0.000004 -7.276089 -6.395295 -68.167890 -4.058778 -4.405312 -78.469236 0.000003 -0.000000 0.000002 -7.579468 1.075981 -73.227660 -2.393325 -2.392769 -87.307426 0.000001 0.000000 0.000001 -7.022818 3.845492 -76.659776 -1.815401 0.759777 -80.479081 0.000001 -0.000000 -0.000003 -9.462340 10.965640 -78.623298 2.377370 2.658691 -59.819575 0.000001 0.000000 0.000001 -0.000001 -0.000002 -0.000000 -1.928001 5.283440 5.513159 7.800890 -12.191472 30.779452 -9.792803 86.984126 37.415332 2.245566 -4.142985 -7.752637 29.807758 11.414126 4.978945 0.685743 -9.241634 -4.247801 -0.000002 -0.000001 0.000003 2.346869 -1.612402 48.394349 -6.703977 1.842625 87.329890 -0.000002 -0.000001 0.000000 -0.734707 -1.568603 58.577266 -6.381731 3.432069 85.213522 -0.000001 -0.000001 0.000001 -3.343775 -6.176184 66.274412 -3.333622 6.032137 81.331133 0.000004 -0.000002 0.000001 -6.079376 -11.652015 66.488886 -3.158996 8.405390 83.476407 -0.000002 0.000002 0.000001 -0.000001 -0.000001 0.000000 0.000000 -0.000000 -0.000000 -0.000000 0.000001 -0.000001 0.000000 -0.000000 -0.000001 0.000000 -0.000000 -0.000001 0.000000 -0.000000 -0.000000 -0.000000 0.000001 -0.000000 0.000000 -0.000000 -0.000001 0.000000 -0.000000 -0.000001 0.000000 -0.000000 -0.000000 -0.000000 0.000001 -0.000000 0.000002 0.000000 -0.000000 0.000002 0.000000 -0.000000 0.000002 0.000000 -0.000000 
-0.055811 41.382683 -1.347710 -19.476655 -11.708432 2.269751 -0.000002 0.000001 -0.000000 -70.097145 5.943768 11.328331 88.874900 5.057785 -3.731526 0.450839 -0.160892 3.708789 0.000000 0.000000 0.000000 -0.000000 0.000000 -0.000000 -72.090905 -5.197692 -5.835358 83.558260 6.144800 3.644548 7.294783 -0.165749 -14.139490 -0.000000 0.000000 -0.000000 0.000000 0.000001 -0.000002 6.133950 -9.586241 -0.547569 12.411950 -19.235701 -0.155655 12.411951 -19.235689 -0.155656 9.952343 31.210143 -17.613716 -15.920459 17.075584 4.454809 -0.000000 0.000000 -0.000000 -0.000000 0.000000 -0.000000 -0.000000 0.000000 -0.000001 -0.000000 0.000000 -0.000000 -0.000000 -0.000000 -0.000000 -0.000000 0.000000 -0.000000 -0.000000 -0.000000 -0.000000 -0.000000 0.000000 -0.000000 -0.000000 0.000000 -0.000000 4.592378 -30.182182 -9.119771 -21.580273 -15.306406 -53.621592 -50.847517 -45.539999 -58.149697 -52.673213 -13.252803 10.015481 4.072518 -21.831462 -7.437051 18.811533 27.104940 -3.609884 0.000004 -0.000002 0.000001 -7.561433 -6.509554 -68.763735 -4.127771 -4.452898 -79.172022 0.000001 0.000001 -0.000000 -7.573536 1.139123 -74.221535 -2.581241 -2.631112 -89.598647 0.000001 0.000000 0.000002 -7.090356 3.968462 -78.077381 -1.607926 0.654442 -83.826638 -0.000001 0.000001 -0.000003 -9.528555 11.165663 -80.425293 2.945422 2.423944 -62.651829 -0.000001 -0.000001 0.000003 0.000001 -0.000001 -0.000001 -1.919474 5.345191 5.533165 8.807480 -13.166601 30.806001 -58.878334 88.062817 86.959100 1.992928 -7.199773 -7.703899 29.807772 11.414114 4.978941 0.685738 -9.241630 -4.247811 -0.000001 0.000000 -0.000006 2.346868 -1.612395 48.394359 -6.703986 1.842621 87.329883 -0.000000 0.000000 -0.000001 -0.734702 -1.568604 58.577280 -6.381730 3.432070 85.213529 -0.000001 0.000001 -0.000001 -3.343758 -6.176204 66.274439 -3.333626 6.032144 81.331120 0.000003 -0.000002 -0.000002 -6.079372 -11.652020 66.488879 -3.159005 8.405395 83.476400 -0.000000 0.000002 0.000001 -0.000000 0.000002 0.000000 0.000002 0.000003 -0.000001 0.000002 0.000002 -0.000000 0.000002 0.000003 -0.000001 0.000002 0.000003 -0.000001 0.000002 0.000003 -0.000001 0.000002 0.000002 -0.000000 0.000002 0.000003 -0.000001 0.000002 0.000003 -0.000001 0.000002 0.000003 -0.000001 0.000002 0.000002 -0.000000 -0.000002 0.000001 -0.000000 -0.000002 0.000001 -0.000000 -0.000002 0.000001 -0.000000 
